# xmcd
#
# Track frame offsets:
#	150
#	46765
#	84121
#	123884
#	161315
#	181620
#	226454
#	266773
#	295203
#
# Disc length: 4256 seconds
#
# Revision: 0
# Processed by: cddbd v1.5.1PL0 Copyright (c) Steve Scherf et al.
# Submitted via: dBpowerAMP V4.0
#
DISCID=65109e09
DTITLE=Dan Brown - DF02 - Digital Fortress
DYEAR=1900
DGENRE=
TTITLE0=0201 Digital Fortress
TTITLE1=0202 Digital Fortress
TTITLE2=0203 Digital Fortress
TTITLE3=0204 Digital Fortress
TTITLE4=0205 Digital Fortress
TTITLE5=0206 Digital Fortress
TTITLE6=0207 Digital Fortress
TTITLE7=0208 Digital Fortress
TTITLE8=0209 Digital Fortress
EXTD=
EXTT0=
EXTT1=
EXTT2=
EXTT3=
EXTT4=
EXTT5=
EXTT6=
EXTT7=
EXTT8=
PLAYORDER=
